<?xml version="1.0" standalone="no"?><!-- Generator: Gravit.io --><svg xmlns="http://www.w3.org/2000/svg" xmlns:xlink="http://www.w3.org/1999/xlink" style="isolation:isolate" viewBox="0 0 90 40" width="90" height="40"><defs><clipPath id="_clipPath_2Xp8dVYoaPkee5zN5NtFaKBwZ2NTDfGO"><rect width="90" height="40"/></clipPath></defs><g clip-path="url(#_clipPath_2Xp8dVYoaPkee5zN5NtFaKBwZ2NTDfGO)"><rect width="90" height="40" style="fill:rgb(25,71,26)"/><rect x="-0.001" y="0.067" width="89.916" height="39.938" transform="matrix(1,0,0,1,0,0)" fill="rgb(130,130,251)"/><rect x="13.526" y="29.102" width="14.158" height="2.217" transform="matrix(1,0,0,1,0,0)" fill="rgb(99,210,101)"/><rect x="28.389" y="33.436" width="18.188" height="1.96" transform="matrix(1,0,0,1,0,0)" fill="rgb(236,105,105)"/><rect x="29.495" y="32.238" width="16.167" height="1.929" transform="matrix(1,0,0,1,0,0)" fill="rgb(107,45,45)"/><rect x="14.913" y="27.417" width="12.304" height="2.13" transform="matrix(1,0,0,1,0,0)" fill="rgb(25,71,26)"/><ellipse vector-effect="non-scaling-stroke" cx="36.600295663236736" cy="7.242788195108365" rx="4.757173052670289" ry="4.826447034374111" fill="rgb(236,105,105)"/><ellipse vector-effect="non-scaling-stroke" cx="11.951724521261491" cy="9.338923132964982" rx="3.9136156419586374" ry="4.040066629873053" fill="rgb(255,248,153)"/><ellipse vector-effect="non-scaling-stroke" cx="20.940467617045826" cy="10.869158554318691" rx="3.1842261744179616" ry="3.261765158459795" fill="rgb(99,210,101)"/><polygon points="36.658,8.127,44.975,32.303,28.185,32.153" fill="rgb(236,105,105)"/><polygon points="21.048,10.732,27.269,27.829,14.71,27.723" fill="rgb(99,210,101)"/><polygon points="11.995,8.83,17.541,31.371,6.345,31.232" fill="rgb(255,248,153)"/><rect x="6.016" y="31.768" width="11.955" height="1.505" transform="matrix(1,0,0,1,0,0)" fill="rgb(255,248,153)"/><rect x="20.81" y="22.844" width="12.128" height="12.493" transform="matrix(0.856,-0.517,0.497,0.868,-10.596,17.742)" fill="rgb(235,235,235)"/><rect x="10.144" y="13.04" width="3.449" height="0.901" transform="matrix(1,0,0,1,0,0)" fill="rgb(88,107,32)"/><ellipse vector-effect="non-scaling-stroke" cx="23.527932202878507" cy="27.974802963289733" rx="1.2508164090758171" ry="1.2843203326808776" fill="rgb(0,0,0)"/><ellipse vector-effect="non-scaling-stroke" cx="30.257834909106577" cy="30.213946383304982" rx="1.2508164090758171" ry="1.2843203326808776" fill="rgb(0,0,0)"/><rect x="6.185" y="30.873" width="11.589" height="1.314" transform="matrix(1,0,0,1,0,0)" fill="rgb(88,107,32)"/><rect x="19.374" y="13.646" width="3.248" height="1.059" transform="matrix(1,0,0,1,0,0)" fill="rgb(25,71,26)"/><rect x="34.394" y="11.574" width="4.368" height="1.155" transform="matrix(1,0,0,1,0,0)" fill="rgb(107,45,45)"/><g transform="matrix(1,0,0,1,48.744,3.842)"><text transform="matrix(1,0,0,1,0,25.652)" style="font-family:'Open Sans';font-weight:400;font-size:24px;font-style:normal;fill:#fff380;stroke:none;">S.t.</text></g></g></svg>